<svg xmlns="http://www.w3.org/2000/svg" xmlns:xlink="http://www.w3.org/1999/xlink" width="47" height="47" viewBox="0 0 47 47"><defs><path id="ah2va" d="M599.02 1667.99H583v-2h16zm0 6H583v-2h16zm0 6H583v-2h16zm0 6h-29v-2h29zm0 6.01h-29v-2h29zM579 1666.99h-7a1 1 0 0 0-1 1v9a1 1 0 0 0 1 1h7a1 1 0 0 0 1-1v-9a1 1 0 0 0-1-1zm0-1a2 2 0 0 1 2 2v9a2 2 0 0 1-2 2h-7a2 2 0 0 1-2-2v-9c0-1.1.9-2 2-2zm5.5 37.01a23.53 23.53 0 0 1-23.5-23.5 23.53 23.53 0 0 1 23.5-23.5 23.53 23.53 0 0 1 23.5 23.5 23.53 23.53 0 0 1-23.5 23.5zm0-46c-12.4 0-22.5 10.1-22.5 22.5s10.1 22.5 22.5 22.5 22.5-10.1 22.5-22.5-10.1-22.5-22.5-22.5z"/></defs><use fill="#9e9e9e" xlink:href="#ah2va" transform="translate(-561 -1656)"/></svg>