<svg xmlns="http://www.w3.org/2000/svg" xmlns:xlink="http://www.w3.org/1999/xlink" width="47" height="47" viewBox="0 0 47 47"><defs><path id="1w2xa" d="M578.36 1354H581v11.06c0 .78-.12 1.48-.37 2.09a4.33 4.33 0 0 1-2.62 2.5 6.87 6.87 0 0 1-4.01.05 3.98 3.98 0 0 1-2.62-2.34 5.36 5.36 0 0 1-.37-2.08h2.65c0 .45.05.84.17 1.16.12.32.28.58.48.78.21.2.46.34.74.44.3.09.61.14.96.14.34 0 .66-.06.95-.18.28-.12.53-.3.74-.53.2-.23.37-.51.48-.85.12-.34.18-.73.18-1.18zm14.85 11.77c0-.32-.05-.6-.14-.84-.1-.25-.27-.47-.53-.68-.25-.2-.6-.4-1.04-.6-.45-.18-1.02-.38-1.72-.59-.76-.22-1.47-.47-2.12-.75a7.33 7.33 0 0 1-1.67-1 4.27 4.27 0 0 1-1.1-1.3 3.5 3.5 0 0 1-.4-1.69c0-.62.15-1.2.42-1.73.28-.52.67-.98 1.17-1.36.5-.39 1.1-.69 1.8-.9a7.9 7.9 0 0 1 2.3-.32c.91 0 1.73.12 2.45.38.72.25 1.33.6 1.82 1.03a4.5 4.5 0 0 1 1.54 3.34h-2.78c0-.38-.06-.72-.18-1.04-.12-.32-.3-.6-.56-.82a2.59 2.59 0 0 0-.95-.54c-.38-.13-.83-.2-1.35-.2-.5 0-.92.06-1.28.17-.36.1-.66.25-.9.44-.24.2-.42.42-.53.69-.11.26-.17.55-.17.85 0 .58.28 1.06.84 1.44a9.1 9.1 0 0 0 2.58 1.07c.9.26 1.69.54 2.35.86a6.8 6.8 0 0 1 1.65 1.06 3.85 3.85 0 0 1 1.3 3 3.78 3.78 0 0 1-1.55 3.1c-.5.37-1.1.66-1.81.85a8.81 8.81 0 0 1-4.64-.01c-.75-.2-1.43-.5-2.02-.92-.6-.4-1.08-.92-1.44-1.53a4.15 4.15 0 0 1-.55-2.16h2.8c0 .5.08.91.26 1.27.18.35.43.64.74.86.31.23.68.39 1.11.5.43.1.89.15 1.38.15.97 0 1.7-.2 2.19-.57.49-.38.73-.89.73-1.51zM584.5 1386a23.53 23.53 0 0 1-23.5-23.5 23.53 23.53 0 0 1 23.5-23.5 23.53 23.53 0 0 1 23.5 23.5 23.53 23.53 0 0 1-23.5 23.5zm0-46c-12.4 0-22.5 10.1-22.5 22.5s10.1 22.5 22.5 22.5 22.5-10.1 22.5-22.5-10.1-22.5-22.5-22.5z"/></defs><use fill="#9e9e9e" xlink:href="#1w2xa" transform="translate(-561 -1339)"/></svg>