<svg xmlns="http://www.w3.org/2000/svg" xmlns:xlink="http://www.w3.org/1999/xlink" width="47" height="47" viewBox="0 0 47 47"><defs><path id="nuffa" d="M594 345.44v25.74c0 .62-.52 1.13-1.15 1.13l-.38.03v.53c0 .63-.52 1.13-1.17 1.13h-18.86l-.1.01h-.17c-.64 0-1.17-.51-1.17-1.14v-25.72c0-.62.53-1.13 1.17-1.13H572.35l20.5-1.7c.63 0 1.14.5 1.14 1.12zm-3.05 1.71c0-.07-.07-.12-.15-.12h-18.63c-.08 0-.14.05-.14.12v25.72c0 .07.06.12.14.12h18.63c.08 0 .15-.05.15-.12zm2.02-1.7a.12.12 0 0 0-.1-.13l-7.97.7h5.9c.65 0 1.17.5 1.17 1.13v24.18l.79-.03h.09c.06 0 .12-.05.12-.12zm-4.96 22.75v.6c0 .66-.51 1.2-1.14 1.2h-10.73c-.63 0-1.14-.54-1.14-1.2v-.6c0-.66.51-1.2 1.14-1.2h10.73c.63 0 1.14.54 1.14 1.2zm-1 0c0-.12-.08-.2-.14-.2h-10.73c-.06 0-.14.08-.14.2v.6c0 .11.07.2.14.2h10.73c.07 0 .14-.09.14-.2zm-5.51-5.2a6.5 6.5 0 1 1 0-13 6.5 6.5 0 0 1 0 13zm0-12a5.5 5.5 0 1 0 0 11 5.5 5.5 0 0 0 0-11zm1 32a23.53 23.53 0 0 1-23.5-23.5 23.53 23.53 0 0 1 23.5-23.5 23.53 23.53 0 0 1 23.5 23.5 23.53 23.53 0 0 1-23.5 23.5zm0-46c-12.4 0-22.5 10.1-22.5 22.5s10.1 22.5 22.5 22.5 22.5-10.1 22.5-22.5-10.1-22.5-22.5-22.5z"/></defs><use fill="#9e9e9e" xlink:href="#nuffa" transform="translate(-559 -336)"/></svg>