<svg xmlns="http://www.w3.org/2000/svg" xmlns:xlink="http://www.w3.org/1999/xlink" width="47" height="47" viewBox="0 0 47 47"><defs><path id="x21ea" d="M575.5 977.99h-1a2.5 2.5 0 0 1-2.5-2.5v-1a2.5 2.5 0 0 1 2.5-2.5h1a2.5 2.5 0 0 1 2.5 2.5v1a2.5 2.5 0 0 1-2.5 2.5zm-1-5c-.83 0-1.5.67-1.5 1.5v1c0 .83.67 1.5 1.5 1.5h1c.83 0 1.5-.67 1.5-1.5v-1c0-.83-.67-1.5-1.5-1.5zm22.5 3h-16v-2h16zm-21.5 12h-1a2.5 2.5 0 0 1-2.5-2.5v-1a2.5 2.5 0 0 1 2.5-2.5h1a2.5 2.5 0 0 1 2.5 2.5v1a2.5 2.5 0 0 1-2.5 2.5zm-1-5c-.83 0-1.5.68-1.5 1.5v1c0 .83.67 1.5 1.5 1.5h1c.83 0 1.5-.67 1.5-1.5v-1c0-.82-.67-1.5-1.5-1.5zm22.5 3h-16v-2h16zM575.5 998h-1a2.5 2.5 0 0 1-2.5-2.5v-1a2.5 2.5 0 0 1 2.5-2.5h1a2.5 2.5 0 0 1 2.5 2.5v1a2.5 2.5 0 0 1-2.5 2.5zm-1-5c-.83 0-1.5.67-1.5 1.5v1c0 .83.67 1.5 1.5 1.5h1c.83 0 1.5-.67 1.5-1.5v-1c0-.83-.67-1.5-1.5-1.5zm22.5 3h-16v-2h16zm-12.5 12a23.53 23.53 0 0 1-23.5-23.5 23.53 23.53 0 0 1 23.5-23.5 23.53 23.53 0 0 1 23.5 23.5 23.53 23.53 0 0 1-23.5 23.5zm0-46c-12.4 0-22.5 10.1-22.5 22.5s10.1 22.5 22.5 22.5 22.5-10.1 22.5-22.5-10.1-22.5-22.5-22.5z"/></defs><use fill="#9e9e9e" xlink:href="#x21ea" transform="translate(-561 -961)"/></svg>